<?xml version="1.0" encoding="UTF-8" standalone="no"?>
<svg
   xmlns:dc="http://purl.org/dc/elements/1.1/"
   xmlns:cc="http://creativecommons.org/ns#"
   xmlns:rdf="http://www.w3.org/1999/02/22-rdf-syntax-ns#"
   xmlns:svg="http://www.w3.org/2000/svg"
   xmlns="http://www.w3.org/2000/svg"
   version="1.1"
   id="svg2"
   viewBox="0 0 744.09448819 1052.3622047"
   height="297mm"
   width="210mm">
  <defs
     id="defs4" />
  <metadata
     id="metadata7">
    <rdf:RDF>
      <cc:Work
         rdf:about="">
        <dc:format>image/svg+xml</dc:format>
        <dc:type
           rdf:resource="http://purl.org/dc/dcmitype/StillImage" />
        <dc:title></dc:title>
      </cc:Work>
    </rdf:RDF>
  </metadata>
  <g
     id="layer1">
    <path
       id="path4703"
       d="m 228.30973,404.27256 c 8.7194,-0.0486 23.38938,-1.23208 32.36173,-2.38384 7.05714,-0.90591 7.29846,-0.75584 10.60741,-1.32289 2.20077,-0.42223 3.63029,-0.64383 5.42169,-1.06799 5.09735,-0.89114 10.54253,-2.26829 15.3209,-3.87484 0.9075,-0.30511 2.6625,-0.8602 3.9,-1.23353 4.75627,-1.43488 11.29096,-3.68967 11.60589,-4.0046 0.10676,-0.10675 0.41306,-0.1941 0.68067,-0.1941 0.26762,0 0.958,-0.24035 1.5342,-0.53411 0.5762,-0.29376 1.71849,-0.78081 2.53843,-1.08232 1.77992,-0.65451 3.19851,-1.2817 7.1908,-3.1792 5.47974,-2.60446 6.28881,-3.01084 7.8,-3.9178 0.825,-0.49513 1.7025,-0.99187 1.95,-1.10386 0.2475,-0.112 0.87231,-0.48018 1.38846,-0.81817 0.51615,-0.338 2.11009,-1.35704 3.5421,-2.26454 2.47051,-1.56563 6.3896,-4.30762 13.31183,-9.31365 1.7008,-1.22999 3.5233,-2.49898 4.05,-2.81997 1.32559,-0.80789 3.45489,-2.42586 4.70761,-3.57711 0.5775,-0.53072 1.66674,-1.38754 2.42052,-1.90404 0.75379,-0.5165 2.64379,-2.06547 4.2,-3.44216 1.55622,-1.3767 3.43479,-2.97333 4.17461,-3.54807 0.73983,-0.57475 1.89334,-1.585 2.56337,-2.245 0.67003,-0.66 1.75222,-1.6883 2.40487,-2.28513 0.65265,-0.59682 2.42304,-2.41932 3.9342,-4.05 1.51116,-1.63067 3.26616,-3.51948 3.9,-4.19734 2.23514,-2.39037 4.45395,-5.0012 7.74849,-9.11753 1.1225,-1.4025 2.19064,-2.685 2.37363,-2.85 0.41455,-0.37378 2.603,-3.0769 3.19256,-3.94336 0.24076,-0.35384 1.45119,-1.90634 2.68984,-3.45 2.57211,-3.20547 3.34634,-4.20573 6.00381,-7.75664 6.67176,-8.91476 9.50014,-13.27867 13.96441,-21.54574 0.50618,-0.93734 1.46644,-2.58264 2.13393,-3.65623 0.66749,-1.07359 1.5776,-2.69359 2.02246,-3.6 0.44487,-0.90641 1.02443,-2.05303 1.28793,-2.54803 3.29341,-6.18688 6.7416,-13.68809 10.27395,-22.34999 0.70652,-1.7325 1.39947,-3.42 1.53988,-3.75 0.95607,-2.24694 4.00636,-11.64937 5.79082,-17.85 1.26765,-4.40475 2.89167,-11.35884 3.50307,-15 0.26373,-1.57069 0.67395,-3.77002 1.00716,-5.4 0.17976,-0.87916 0.77139,-4.61644 0.90237,-5.7 0.15102,-1.24953 0.77472,-5.55544 0.89559,-6.18302 0.16131,-0.83761 0.4608,-3.56159 0.62304,-5.66698 0.0763,-0.99 0.19446,-2.07046 0.26262,-2.40102 0.0682,-0.33055 0.20979,-1.74805 0.31476,-3.15 0.10497,-1.40194 0.26229,-3.29148 0.34962,-4.19898 0.0873,-0.9075 0.21537,-2.6625 0.28455,-3.9 0.0691,-1.2375 0.1878,-2.55152 0.26367,-2.92004 0.0758,-0.36852 0.21471,-2.59602 0.30855,-4.95 0.71841,-18.01921 0.35719,-30.82994 0.38501,-33.20965 0.0231,-1.975 0.0443,-4.24899 0.089,-4.88385 0.0447,-0.63486 0.0646,-2.55744 -0.42349,-2.86433 -0.34159,-0.40454 -1.91021,-0.30681 -2.81062,-0.31671 -2.16937,-0.0238 -3.63247,-0.0754 -5.96047,-0.16046 -0.93802,-0.0343 -2.48692,-0.0399 -3.42553,-0.0328 -4.34958,0.0329 -8.69929,-0.0525 -13.0487,-0.10299 -9.81676,-0.11387 -19.42065,-0.26292 -29.44882,-0.45073 -5.78387,-0.091 -14.53553,-0.1328 -16.44553,-0.35964 -8.7857,0.13105 -41.19258,-0.48077 -58.25948,-0.74884 -8.3735,-0.0322 -13.75991,-0.018 -13.76016,-0.14756 -18.26506,-0.80429 -41.47578,-1.30075 -63.07355,-0.97184 -4.82614,0.50288 -6.10193,-0.18849 -12.29783,-0.20211 -6.47043,-0.0885 -4.04243,-0.23913 -10.47411,-0.21408 -3.22476,-0.1812 -3.71365,-0.0924 -10.46561,-0.17068 -10.3096,-0.40009 0,0 -8.90643,-0.20229 -1.95528,0.0345 -2.09506,-0.27126 -5.87683,-0.15154 -6.09163,-0.0102 -10.32399,0.0106 -12.50596,-0.0186 -2.18197,-0.0292 -4.12083,-7.5e-4 -4.75554,0.26987 -0.88995,0.37945 -0.90251,2.25267 -0.84561,3.87593 0.0291,4.26262 0.009,2.10492 0.049,8.94791 0.0157,2.71834 -0.11721,4.7974 -0.12027,8.12392 0.19283,3.23466 -0.007,5.61014 -0.0282,8.79556 -0.0154,4.42573 -0.28705,9.97829 -0.19254,8.09446 0.0976,-1.94536 -0.0373,1.91129 -0.14599,5.36438 -0.0139,0.4429 -0.0674,3.27147 -0.0674,3.27147 0.012,0.18495 -0.049,1.4092 0.0271,3.11682 0.34526,1.38194 1.60565,0.23012 5.16674,0.64889 1.4025,0.16493 2.18299,0.28782 3.33799,0.44189 1.155,0.15407 3.3825,0.44031 4.95,0.63609 1.5675,0.19578 3.9975,0.60139 5.4,0.90135 4.87591,1.04284 7.9589,1.7687 9.45,2.22492 0.825,0.25241 3.47306,1.01461 3.47306,1.01461 1.64913,0.70245 8.14475,2.48173 12.12694,4.23902 0.165,0.11753 1.11,0.52682 2.1,0.90953 0.99,0.3827 1.92825,0.80977 2.085,0.94904 0.15675,0.13928 0.60347,0.25323 0.9927,0.25323 0.45855,0 0.63235,0.12193 0.49365,0.34635 -0.12066,0.19523 -0.0834,0.2656 0.0854,0.16127 0.28875,-0.17845 4.81728,1.93167 5.17012,2.40908 0.0952,0.12884 0.57813,0.42969 1.07313,0.66855 0.495,0.23887 1.33875,0.75178 1.875,1.13979 0.53625,0.38802 0.9791,0.59737 0.98412,0.46522 0.005,-0.13214 0.14672,-0.004 0.31491,0.28474 0.16818,0.28875 0.50157,0.525 0.74087,0.525 0.2393,0 0.4351,0.12036 0.4351,0.26747 0,0.14712 0.35595,0.35682 0.791,0.46601 0.43505,0.10919 1.22404,0.52883 1.75331,0.93252 0.52928,0.4037 1.11833,0.734 1.309,0.734 0.19068,0 0.34669,0.135 0.34669,0.3 0,0.165 0.20673,0.3 0.45941,0.3 0.25268,0 0.53712,0.2025 0.6321,0.45 0.095,0.2475 0.36074,0.45 0.59058,0.45 0.22985,0 0.41791,0.135 0.41791,0.3 0,0.165 0.20673,0.3 0.45941,0.3 0.25268,0 0.53712,0.2025 0.6321,0.45 0.095,0.2475 0.34629,0.45 0.55849,0.45 0.21219,0 0.46351,0.2025 0.55849,0.45 0.095,0.2475 0.31074,0.45 0.47948,0.45 6.13871,5.12443 10.86881,7.57403 15.85161,14.10469 9.22949,11.19573 12.68991,18.22631 16.21577,27.28161 2.32336,8.73806 3.84484,16.43676 3.84549,16.95275 0.96415,6.56634 1.25335,10.63534 1.36827,17.80016 -0.32439,8.5267 -0.9975,10.2214 -3.62754,20.4836 -2.34156,6.81852 -1.46152,4.78886 -3.68965,10.00422 -3.33519,6.47154 -4.27334,7.94383 -6.46367,12.18213 -2.89865,4.42573 -4.18125,6.37706 -8.082,10.4139 -5.11016,6.15277 -7.7452,9.41222 -13.87707,13.68105 -0.4125,0.36263 -3.3566,2.53867 -6.75283,4.64558 -4.45149,2.76155 -7.44866,4.22526 -14.51812,7.2475 -4.4561,1.46816 -10.85513,3.59564 -12.30097,4.09326 -6.90406,2.07653 -10.7868,2.70234 -17.12367,4.40947 -3.43384,0.59951 -5.52872,0.95178 -8.66456,1.40548 -3.13585,0.4537 -8.0382,0.55245 -10.14622,0.75485 -1.17697,0.56353 -1.89044,0.77102 -2.59597,2.35547 -0.39804,2.03926 -0.41625,5.59162 0.12886,8.34467 0.45212,1.97913 0.97166,3.28512 1.77327,5.09611 2.90721,4.52592 5.53632,6.30075 11.17225,8.86048 4.50809,1.86692 12.70642,3.54265 19.96679,4.75513 7.26038,1.21248 11.40995,1.69316 14.33906,1.97565 3.02192,0.27934 5.85608,0.2312 7.48076,0.23387 z"
       style="fill:none;stroke:#000000;stroke-width:1.50000002;stroke-miterlimit:4;stroke-dasharray:none;stroke-opacity:1;opacity:0.624" />
  </g>
</svg>
